<svg xmlns="http://www.w3.org/2000/svg" viewBox="0 0 125.98 56.38"><defs><style>.cls-1{fill:#fff;}</style></defs><g id="Capa_2" data-name="Capa 2"><g id="Verde"><path class="cls-1" d="M73.71,32.2s0-.06,0-.09c0-.87.71-1.21.89-2a2.18,2.18,0,0,0,0-.95c-.14-.8.4-.8.58-1.35.3-.94-.4-2.1,0-2.93A2.24,2.24,0,0,0,75.39,23c-.47-1,0-1.59,0-2.48,0-.23-.08-1.91.14-2a1.54,1.54,0,0,0,.46-.39,3.62,3.62,0,0,0,.65-1.66v-.07a5.19,5.19,0,0,1,1.52-.59,5,5,0,0,0-2,.23l-.11,0c-1.48.52-3.22,1.95-3.22,5.84,0,13.53-11.92,7.9-11.92-4.42,0-2.54,2.44,0,2.44-8.31C63.43-.8,53.72,0,53.72,0S44-.8,44,9.23c0,8.31,2.45,5.77,2.45,8.31,0,12.32-11.92,18-11.92,4.42,0-3.89-1.74-5.32-3.22-5.84l-.11,0a5.07,5.07,0,0,0-2-.23,5.3,5.3,0,0,1,1.53.59s0,0,0,.07a3.73,3.73,0,0,0,.64,1.66,1.58,1.58,0,0,0,.47.39c.21.09.14,1.77.14,2,0,.89.49,1.5,0,2.48a2.24,2.24,0,0,0,.22,1.82c.4.83-.3,2,0,2.93.17.55.71.55.57,1.35a2.53,2.53,0,0,0,0,.95c.18.81.85,1.15.9,2,0,0,0,.06,0,.09-1.79-.13-5,.38-5,5.67,0,2.45,1.25,4.41,3.91,4.41,2.87,0,3.48-2,3.51-2l-1,.08c-1.79.4-1-.76-1.46-.88s-2.89,1.22-1.15-1.07c.37-.5-.06-2.4,1.14-1.93a1.71,1.71,0,0,0,1.48,0c1.43-.6.87,1.43,1.4,1.37C40,37.48,39,39.65,40.5,39.23a4.41,4.41,0,0,0,1-.57c.1,3.6,2,3.84,2,6.62,0,3.75-4.8,4.48-4.8-.38a5.13,5.13,0,0,1,.51-2.07,5.58,5.58,0,0,0-1.68,2.88c-.4,1-1.05,1.8-.34,2.82a8.47,8.47,0,0,1,1.08,1.85A1,1,0,0,0,39,51c.88.08,1.84.2,2.69.19.51,0,.53,0,.89-.3.53-.44,1.78-.77,2-1.44.31-.84,1.6-2,1.49-3a3.23,3.23,0,0,0-.2-.8c.29-.62.78-1.21.37-1.91a.94.94,0,0,0-.57-.39,1,1,0,0,0-.13-.18l-.15-.3c0-.87.88-1.5.61-2.31a1.46,1.46,0,0,0-.43-.75c-.63-.72.69-1.44,1-1.83a.94.94,0,0,0,.17-.63,3.33,3.33,0,0,1,.37-2.1,1.18,1.18,0,0,1,.51-.37,1.23,1.23,0,0,0,.67-.5c.56,2.69,1.79,5.34,2.16,8,.88,6.26-1.16,8.25-3.58,8.25a3.43,3.43,0,0,1-2.05-.79,4.41,4.41,0,0,0,1.3,1.37c.22.63,1.81,1.9,2.38,1.23s1.66-.17,2.34-.85c.42-.41-.09-1.27.34-1.56.7-.48,1-.68,1.06-1.58s-.49-.92.48-1.88a1.23,1.23,0,0,0,.35-.85,1.6,1.6,0,0,0-.14-.77c-.62-1.44-.1-1.36.36-2.14a1,1,0,0,0,0-.78A5.92,5.92,0,0,1,52.8,40c.17-.7.78-1.33.5-2.1a3.6,3.6,0,0,0-.51-1c-.75-1.2-.39-1.24-.22-2,.26-1.27-1.18-2.32-.37-3.65a4.88,4.88,0,0,0,.72-1.42c.13-.51-.18-.86-.1-1.42a6.18,6.18,0,0,1,.72-.73c.11,0,.18-.07.18-.14s.07.12.18.14a4.93,4.93,0,0,1,.72.73c.09.56-.23.91-.09,1.42a4.88,4.88,0,0,0,.72,1.42c.81,1.33-.64,2.38-.37,3.65.17.81.53.85-.23,2a3.84,3.84,0,0,0-.5,1c-.29.77.32,1.4.49,2.1A5.92,5.92,0,0,1,54,41.91a1.11,1.11,0,0,0,0,.78c.46.78,1,.7.37,2.14a1.49,1.49,0,0,0-.14.77,1.23,1.23,0,0,0,.35.85c1,1,.44,1,.47,1.88s.37,1.1,1.07,1.58c.43.29-.08,1.15.34,1.56.67.68,1.67.07,2.33.85s2.16-.6,2.39-1.23a4.56,4.56,0,0,0,1.3-1.37,3.47,3.47,0,0,1-2,.79c-2.42,0-4.46-2-3.58-8.25.37-2.64,1.59-5.29,2.16-8a1.23,1.23,0,0,0,.67.5,1.24,1.24,0,0,1,.51.37,3.4,3.4,0,0,1,.37,2.1.94.94,0,0,0,.17.63c.35.39,1.67,1.11,1,1.83a1.51,1.51,0,0,0-.42.75c-.27.81.65,1.44.6,2.31a1.4,1.4,0,0,1-.15.3.94.94,0,0,0-.12.18.92.92,0,0,0-.57.39c-.41.7.08,1.29.36,1.91a3.75,3.75,0,0,0-.19.8c-.12,1,1.18,2.21,1.49,3,.25.67,1.5,1,2,1.44.36.31.38.3.89.3.85,0,1.8-.11,2.69-.19a1,1,0,0,0,.76-.57,8.47,8.47,0,0,1,1.08-1.85c.7-1,.06-1.84-.34-2.82a5.56,5.56,0,0,0-1.69-2.88,5.13,5.13,0,0,1,.51,2.07c0,4.86-4.79,4.13-4.79.38,0-2.78,1.88-3,2-6.62a4.41,4.41,0,0,0,1,.57c1.51.42.54-1.75,3.89-1.34.52.06,0-2,1.4-1.37a1.71,1.71,0,0,0,1.48,0c1.19-.47.77,1.43,1.14,1.93,1.74,2.29-.81,1-1.16,1.07s.34,1.28-1.45.88l-1-.08s.63,2,3.5,2c2.67,0,3.92-2,3.92-4.41C78.71,32.58,75.5,32.07,73.71,32.2Zm-26-13.6c-.53,0-1-.53-1.06-1.24a1.65,1.65,0,0,0,1.06.58c.35.08.61.12.82.15A1,1,0,0,1,47.67,18.6Zm0-3c.6,0,1.09.66,1.09,1.48h0A5.86,5.86,0,0,1,47.67,17a1.85,1.85,0,0,1-1-.47A1.11,1.11,0,0,1,47.67,15.65ZM59,18.09c.2,0,.47-.07.81-.15a1.65,1.65,0,0,0,1.07-.58c-.09.71-.53,1.24-1.07,1.24A1,1,0,0,1,59,18.09Zm.81-2.44a1.11,1.11,0,0,1,1,.86,1.89,1.89,0,0,1-1,.47,5.64,5.64,0,0,1-1.08.16h0C58.69,16.31,59.18,15.65,59.77,15.65Z"/><path class="cls-1" d="M96.51,4.76a3.21,3.21,0,0,1,3.15,4.17c-1.56,5.39-3.15,10.78-4.72,16.17Q92,35,89.15,45c-.86,3-1.7,5.89-2.58,8.83a3.18,3.18,0,0,1-2.37,2.47,3.24,3.24,0,0,1-4-3.9c.56-2.07,1.2-4.13,1.8-6.2q2.87-9.83,5.74-19.66Q90.54,17,93.32,7.42C93.84,5.63,94.89,4.77,96.51,4.76Z"/><path class="cls-1" d="M8,30.59l.31.33,10.11,9.91c1.55,1.51,1.73,2.84.64,4.66-1,1.62-4,1.64-5.18,0a6.32,6.32,0,0,0-.63-.74c-2-2-4.13-4-6.17-6s-4-4-6-5.93a3.05,3.05,0,0,1,0-4.62l11.24-11c.61-.59,1.15-1.25,1.77-1.83a3.26,3.26,0,0,1,4.75,4.48c-.35.36-.72.7-1.08,1.06L8.24,30.28C8.15,30.36,8.07,30.46,8,30.59Z"/><path class="cls-1" d="M118.1,30.52c-.25-.2-.49-.35-.69-.54L107.3,20.06a3.05,3.05,0,0,1-.85-3.27A3,3,0,0,1,109,14.52c1.59-.3,2.68.54,3.63,1.62.2.22.37.47.58.67,2.15,2.09,4.31,4.16,6.45,6.25q2.68,2.63,5.34,5.3a3.08,3.08,0,0,1-.11,4.63l-12,11.7c-.35.35-.64.76-1,1.11a3.26,3.26,0,0,1-4.6.09,3.15,3.15,0,0,1-.11-4.61c1.69-1.69,3.44-3.31,5.14-5C114.24,34.42,116.1,32.53,118.1,30.52Z"/></g></g></svg>